HIERARCHY
ROOT Hips
{
	OFFSET	0.00	0.00	0.00
	CHANNELS 6 Xposition Yposition Zposition Zrotation Xrotation Yrotation
	JOINT LeftUpLeg
	{
		OFFSET	 0.126116	-0.014019	-0.065224
		CHANNELS 3 Zrotation Xrotation Yrotation
		JOINT LeftLeg
		{
			OFFSET	 0.000000	 0.000000	 0.569914
			CHANNELS 3 Zrotation Xrotation Yrotation
			JOINT LeftFoot
			{
				OFFSET	 0.000000	 0.000000	 0.544423
				CHANNELS 3 Zrotation Xrotation Yrotation
				JOINT LeftToeBase
				{
					OFFSET	 0.000000	 0.000000	 0.207117
					CHANNELS 3 Zrotation Xrotation Yrotation
					End Site
					{
						OFFSET	 0.000000	 0.000000	 0.207117
					}
				}
			}
		}
	}
	JOINT RightUpLeg
	{
		OFFSET	-0.124023	-0.008373	-0.065224
		CHANNELS 3 Zrotation Xrotation Yrotation
		JOINT RightLeg
		{
			OFFSET	 0.000000	 0.000000	 0.570047
			CHANNELS 3 Zrotation Xrotation Yrotation
			JOINT RightFoot
			{
				OFFSET	 0.000000	 0.000000	 0.544354
				CHANNELS 3 Zrotation Xrotation Yrotation
				JOINT RightToeBase
				{
					OFFSET	 0.000000	 0.000000	 0.207540
					CHANNELS 3 Zrotation Xrotation Yrotation
					End Site
					{
						OFFSET	 0.000000	 0.000000	 0.207540
					}
				}
			}
		}
	}
	JOINT Spine
	{
		OFFSET	 0.000184	-0.007763	 0.117403
		CHANNELS 3 Zrotation Xrotation Yrotation
		JOINT Spine1
		{
			OFFSET	 0.000000	 0.000000	 0.137269
			CHANNELS 3 Zrotation Xrotation Yrotation
			JOINT Spine2
			{
				OFFSET	 0.000000	 0.000000	 0.156879
				CHANNELS 3 Zrotation Xrotation Yrotation
				JOINT LeftShoulder
				{
					OFFSET	 0.080501	-0.002496	 0.160144
					CHANNELS 3 Zrotation Xrotation Yrotation
					JOINT LeftArm
					{
						OFFSET	 0.000000	 0.000000	 0.164363
						CHANNELS 3 Zrotation Xrotation Yrotation
						JOINT LeftForeArm
						{
							OFFSET	 0.000000	 0.000000	 0.364576
							CHANNELS 3 Zrotation Xrotation Yrotation
							JOINT LeftHand
							{
								OFFSET	 0.000000	 0.000000	 0.360812
								CHANNELS 3 Zrotation Xrotation Yrotation
								JOINT LeftHandIndex1
								{
									OFFSET	 0.000000	 0.000000	 0.086006
									CHANNELS 3 Zrotation Xrotation Yrotation
									JOINT LeftHandIndex2
									{
										OFFSET	 0.000000	 0.000000	 0.047236
										CHANNELS 3 Zrotation Xrotation Yrotation
										JOINT LeftHandIndex3
										{
											OFFSET	-0.004284	-0.000551	 0.038166
											CHANNELS 3 Zrotation Xrotation Yrotation
											End Site
											{
												OFFSET	-0.004284	-0.000551	 0.038166
											}
										}
									}
								}
							}
						}
					}
				}
				JOINT Neck
				{
					OFFSET	 0.000000	 0.000000	 0.176489
					CHANNELS 3 Zrotation Xrotation Yrotation
					JOINT Head
					{
						OFFSET	 0.000000	-0.001747	 0.077940
						CHANNELS 3 Zrotation Xrotation Yrotation
						End Site
						{
							OFFSET	 0.000000	-0.001747	 0.077940
						}
					}
				}
				JOINT RightShoulder
				{
					OFFSET	-0.080363	 0.000306	 0.159706
					CHANNELS 3 Zrotation Xrotation Yrotation
					JOINT RightArm
					{
						OFFSET	 0.000000	 0.000000	 0.164196
						CHANNELS 3 Zrotation Xrotation Yrotation
						JOINT RightForeArm
						{
							OFFSET	 0.000000	 0.000000	 0.365611
							CHANNELS 3 Zrotation Xrotation Yrotation
							JOINT RightHand
							{
								OFFSET	 0.000000	 0.000000	 0.360648
								CHANNELS 3 Zrotation Xrotation Yrotation
								JOINT RightHandIndex1
								{
									OFFSET	 0.000000	 0.000000	 0.069977
									CHANNELS 3 Zrotation Xrotation Yrotation
									JOINT RightHandIndex2
									{
										OFFSET	 0.000000	 0.000000	 0.052305
										CHANNELS 3 Zrotation Xrotation Yrotation
										JOINT RightHandIndex3
										{
											OFFSET	 0.009002	-0.000782	 0.042196
											CHANNELS 3 Zrotation Xrotation Yrotation
											End Site
											{
												OFFSET	 0.009002	-0.000782	 0.042196
											}
										}
									}
								}
							}
						}
					}
				}
			}
		}
	}
}
MOTION
Frames:    7
Frame Time: 0.03333334
-1.986771	-11.430350	 0.514100	-23.171630	 8.016499	 1.693338	 4.522678	-22.021910	 174.190200	-1.648362	-39.957870	-0.195794	 0.066813	 84.612380	-0.537924	-2.385741	 28.472890	-0.000432	-2.485847	-22.901370	-178.752800	-0.121094	-40.868790	-0.004016	-0.187240	 85.538710	 0.425983	 2.407678	 17.345960	-0.225312	-0.113557	 9.037124	-0.377558	 0.349386	 6.965952	-2.355424	 0.626344	 4.638708	 0.016090	-115.602000	 89.397370	-153.628600	 56.140040	 60.041920	-78.292980	-3.672521	-4.418060	-20.726280	 4.219047	-26.735360	-5.972244	-3.812334	 37.924440	-2.927599	-2.450526	 36.184240	 0.754587	-1.378229	 35.397820	-2.634230	 0.458746	 2.658943	-0.639661	 0.729403	 7.608995	-0.175600	 94.723340	 86.913640	 171.582400	-53.515430	 70.337500	 71.700260	-3.220150	-13.013140	 25.780560	-19.657940	-27.463740	 10.797990	 6.437017	 35.671460	-0.771858	 2.830251	 35.756010	-7.813440	-2.350882	 35.473990	 5.254307
-1.986078	-11.430010	 0.518071	-23.191010	 8.051439	 1.765157	 4.524552	-22.229810	 174.144900	-1.700166	-40.371270	-0.239062	 0.120941	 84.751370	-0.636588	-2.385703	 28.481660	-0.000626	-2.461746	-23.116030	-178.764000	-0.101206	-41.177780	 0.030412	-0.354230	 85.658330	 0.634553	 2.407681	 17.590670	-0.220533	-0.118281	 9.101872	-0.440769	 0.346149	 6.922755	-2.384140	 0.620919	 4.578367	 0.016279	-115.664100	 89.395420	-153.549200	 55.949390	 59.558690	-78.045800	-3.648625	-4.296660	-21.066190	 3.738939	-26.780550	-5.977939	-3.812334	 37.924440	-2.927599	-2.450526	 36.184240	 0.754587	-1.378229	 35.397820	-2.634230	 0.452261	 2.585885	-0.610321	 0.729666	 7.565549	-0.208755	 94.718540	 86.899150	 171.568500	-53.424970	 69.980760	 71.801920	-3.212517	-12.965820	 25.978440	-19.395360	-27.510640	 10.803520	 6.437017	 35.671460	-0.771858	 2.830251	 35.756010	-7.813440	-2.350882	 35.473990	 5.254307
-1.984846	-11.428920	 0.516059	-23.229600	 8.034244	 1.825768	 4.508407	-22.734940	 174.074600	-1.772154	-41.113980	-0.311356	 0.163012	 84.982220	-0.746170	-2.385272	 28.578290	-0.002715	-2.430057	-23.503940	-178.753400	-0.067906	-41.787120	 0.087676	-0.628848	 85.851820	 0.972378	 2.407651	 17.913300	-0.214224	-0.111580	 9.246893	-0.500650	 0.347650	 6.849494	-2.417769	 0.605719	 4.468674	 0.016463	-115.227100	 89.375360	-153.942000	 55.513420	 58.640210	-77.660570	-3.665926	-4.053945	-21.698370	 2.830658	-26.903970	-5.991817	-3.812334	 37.924440	-2.927599	-2.450526	 36.184240	 0.754587	-1.378229	 35.397820	-2.634230	 0.432885	 2.387062	-0.574918	 0.723428	 7.551832	-0.295172	 94.732430	 86.885670	 171.524100	-53.117410	 69.284240	 71.865940	-3.262234	-12.985910	 26.500220	-18.986560	-27.639590	 10.819230	 6.437017	 35.671460	-0.771858	 2.830251	 35.756010	-7.813440	-2.350882	 35.473990	 5.254307
-1.983202	-11.427290	 0.513481	-23.308560	 8.060259	 1.841954	 4.564306	-23.363110	 174.033500	-1.841736	-41.993990	-0.340047	 0.379772	 85.239220	-0.977363	-2.385060	 28.624860	-0.003725	-2.410904	-24.032970	-178.691900	-0.052631	-42.565680	 0.132892	-0.928284	 86.063240	 1.314008	 2.407590	 18.206760	-0.208474	-0.092093	 9.448274	-0.522489	 0.349254	 6.756749	-2.430542	 0.576920	 4.335547	 0.016350	-114.511700	 89.340320	-154.582400	 54.845650	 57.847280	-77.271070	-3.412461	-4.025525	-22.462460	 2.469361	-27.081010	-6.007192	-3.812334	 37.924440	-2.927599	-2.450526	 36.184240	 0.754587	-1.378229	 35.397820	-2.634230	 0.406745	 2.127524	-0.560576	 0.694192	 7.553825	-0.299903	 94.763180	 86.871440	 171.449500	-52.571700	 68.511150	 71.771100	-3.312541	-13.091470	 27.219050	-18.593450	-27.842080	 10.825840	 6.437017	 35.671460	-0.771858	 2.830251	 35.756010	-7.813440	-2.350882	 35.473990	 5.254307
-1.981076	-11.424750	 0.509953	-23.414210	 8.131901	 1.856269	 4.680084	-24.136440	 174.007200	-1.946177	-43.140200	-0.360543	 0.630015	 85.563450	-1.224876	-2.384765	 28.690750	-0.005151	-2.387508	-24.852900	-178.617100	-0.081307	-43.631600	 0.158050	-1.297832	 86.326620	 1.695726	 2.407449	 18.621030	-0.200339	-0.082318	 9.734632	-0.549390	 0.340349	 6.618722	-2.440874	 0.550258	 4.155992	 0.016460	-113.573000	 89.293620	-155.434400	 53.899680	 57.137800	-76.921650	-3.030313	-4.195585	-23.525800	 2.517725	-27.332260	-6.025604	-3.812334	 37.924440	-2.927599	-2.450526	 36.184240	 0.754587	-1.378229	 35.397820	-2.634230	 0.381873	 1.815425	-0.544359	 0.669525	 7.520292	-0.233084	 94.806980	 86.843590	 171.330900	-51.826700	 67.613270	 71.742610	-3.292064	-13.274920	 28.171490	-18.164730	-28.104220	 10.860290	 6.437017	 35.671460	-0.771858	 2.830251	 35.756010	-7.813440	-2.350882	 35.473990	 5.254307
-1.978260	-11.420810	 0.505291	-23.550900	 8.289408	 1.818778	 4.749491	-25.244930	 174.001800	-2.082304	-44.614180	-0.432279	 0.774932	 85.975280	-1.408758	-2.384147	 28.826380	-0.008095	-2.325950	-26.078200	-178.520200	-0.121686	-45.049880	 0.205845	-1.584184	 86.659540	 2.005779	 2.407096	 19.286830	-0.187221	-0.091129	 10.113200	-0.534001	 0.326776	 6.401739	-2.431032	 0.548180	 3.890375	 0.017670	-112.683900	 89.238690	-156.209500	 52.724230	 56.413740	-76.635700	-3.224293	-4.231283	-25.062350	 2.099031	-27.665330	-6.050418	-3.812334	 37.924440	-2.927599	-2.450526	 36.184240	 0.754587	-1.378229	 35.397820	-2.634230	 0.379514	 1.397579	-0.554065	 0.669308	 7.428974	-0.095868	 94.855300	 86.788310	 171.159700	-50.916970	 66.628150	 71.969770	-3.107587	-13.524200	 29.337860	-17.714410	-28.448440	 10.902670	 6.437017	 35.671460	-0.771858	 2.830251	 35.756010	-7.813440	-2.350882	 35.473990	 5.254307
-1.975005	-11.415980	 0.500229	-23.712600	 8.543509	 1.715876	 4.788756	-26.587240	 174.080000	-2.291456	-46.241790	-0.573193	 0.992059	 86.428990	-1.725579	-2.383369	 28.994700	-0.011754	-2.239617	-27.472940	-178.462800	-0.150527	-46.650420	 0.278728	-1.987344	 87.025730	 2.451704	 2.406542	 19.977320	-0.173555	-0.093728	 10.587210	-0.483104	 0.327401	 6.127129	-2.392921	 0.574110	 3.552795	 0.020198	-112.179800	 89.184350	-156.562300	 51.491430	 55.788160	-76.370910	-3.595607	-4.256463	-26.826890	 1.641900	-28.031350	-6.076165	-3.812334	 37.924440	-2.927599	-2.450526	 36.184240	 0.754587	-1.378229	 35.397820	-2.634230	 0.408441	 0.901067	-0.593115	 0.689441	 7.278096	 0.121646	 94.891970	 86.704800	 170.959300	-49.852390	 65.755060	 72.209280	-2.747529	-13.778150	 30.527240	-17.292840	-28.840950	 10.929460	 6.437017	 35.671460	-0.771858	 2.830251	 35.756010	-7.813440	-2.350882	 35.473990	 5.254307
